<?xml version="1.0" encoding="UTF-8"?>
<svg version="1.1" xmlns="http://www.w3.org/2000/svg" width="512" height="512">
<path d="M0 0 C0.80280733 -0.00205263 1.60561466 -0.00410527 2.43274948 -0.0062201 C5.13968671 -0.01190269 7.84657327 -0.0104313 10.55351543 -0.00901413 C12.50713478 -0.01159704 14.46075359 -0.01460999 16.41437167 -0.01801753 C21.7961686 -0.0260994 27.17795221 -0.02787776 32.55975449 -0.028615 C38.35878523 -0.03046347 44.15780902 -0.03800971 49.95683575 -0.04475021 C62.64261379 -0.05834203 75.32838868 -0.06435945 88.01417279 -0.06876087 C95.9314288 -0.0715216 103.84868358 -0.07575862 111.76593876 -0.08026505 C133.67607358 -0.09245833 155.58620738 -0.10279324 177.49634552 -0.10614014 C178.91326099 -0.10636177 180.33017646 -0.10658355 181.74709193 -0.10680549 C183.16744014 -0.10702613 184.58778836 -0.10724661 186.00813657 -0.10746694 C188.8576287 -0.10790949 191.70712084 -0.10835661 194.55661297 -0.10880661 C195.26312155 -0.108916 195.96963012 -0.10902539 196.69754805 -0.1091381 C219.61175965 -0.11276962 242.52593962 -0.12869348 265.44013911 -0.15199697 C289.66248426 -0.17658584 313.88481133 -0.19031252 338.10716933 -0.19150805 C351.31280096 -0.19242579 364.51839118 -0.19820282 377.72401142 -0.21632767 C388.96694031 -0.23170409 400.20981499 -0.23686363 411.45275239 -0.22858956 C417.19126832 -0.22467448 422.92967501 -0.22565453 428.6681776 -0.23964691 C433.9193318 -0.25233416 439.1702941 -0.25123398 444.42144784 -0.2390562 C446.32319172 -0.23709021 448.22494895 -0.24021898 450.12667403 -0.24890056 C452.70866119 -0.25994327 455.28996511 -0.25254013 457.87193298 -0.24050903 C458.61286024 -0.24810423 459.35378749 -0.25569942 460.11716709 -0.26352477 C468.2406852 -0.18162667 473.52957274 2.9736447 479.39425945 8.36189651 C484.20160205 13.277757 485.24664325 17.94553515 485.25894928 24.61444855 C485.26340712 25.73564913 485.26786497 26.85684971 485.2724579 28.01202607 C485.27218135 29.85985519 485.27218135 29.85985519 485.27189922 31.74501419 C485.27557591 33.05360767 485.2792526 34.36220115 485.2830407 35.71044898 C485.29305308 39.34587341 485.29677626 42.98128132 485.29943001 46.61671758 C485.30333525 50.53640776 485.31291334 54.4560849 485.32164288 58.37576675 C485.34139961 67.84251413 485.35147184 77.30926257 485.36037067 86.77602541 C485.36475429 91.23396857 485.37012085 95.69191054 485.37535954 100.14985275 C485.39236994 114.96825412 485.40686471 129.78665476 485.41410828 144.60506439 C485.41601817 148.44995245 485.4179385 152.29484051 485.41989422 156.13972855 C485.42037796 157.0953554 485.4208617 158.05098225 485.4213601 159.03556749 C485.4296627 174.52050976 485.45500433 190.00537484 485.4874749 205.4902834 C485.52053833 221.38746467 485.53855633 237.2846067 485.54175252 253.18182254 C485.54391812 262.10791611 485.55267432 271.03389706 485.57821369 279.95995712 C485.59991079 287.56066643 485.60797595 295.16123576 485.59824691 302.76197252 C485.5936995 306.63946106 485.59561382 310.51666073 485.61500835 314.39410973 C485.63586186 318.59957905 485.62566368 322.8044066 485.6124754 327.00990677 C485.62892926 328.84435156 485.62892926 328.84435156 485.64571553 330.71585584 C485.57737822 339.72804916 483.69957292 346.55658304 477.1247282 353.13142776 C470.06211342 357.73975127 464.72895113 359.28249193 456.32030582 359.26564884 C455.12757326 359.26917719 455.12757326 359.26917719 453.91074508 359.27277681 C451.22981106 359.2794665 448.5489255 359.2790086 445.86798382 359.27859879 C443.9330016 359.28189743 441.99802007 359.28562299 440.06303942 359.28974026 C434.73264223 359.29976831 429.4022563 359.30347835 424.07185102 359.30612957 C418.32797691 359.31003022 412.58411174 359.3196087 406.84024334 359.32834244 C392.96261812 359.34811322 379.08499217 359.35817366 365.20735639 359.36707023 C358.67459086 359.37145196 352.14182613 359.37681905 345.60906124 359.3820591 C323.89709341 359.39907169 302.18512653 359.41359134 280.47315311 359.42080784 C279.0689903 359.4212826 277.66482749 359.42175848 276.26066468 359.4222355 C275.21615904 359.42259006 275.21615904 359.42259006 274.15055228 359.42295179 C270.62257576 359.42415299 267.09459925 359.42536844 263.56662273 359.42659378 C262.51641734 359.42695401 262.51641734 359.42695401 261.44499567 359.42732151 C238.74575021 359.43521414 216.046557 359.45864526 193.34733435 359.49114972 C169.34769421 359.52545358 145.34808597 359.54515835 121.34842074 359.54845208 C108.26619777 359.55061859 95.1840516 359.55938799 82.10185146 359.58491325 C70.96183783 359.60659864 59.82191966 359.61468127 48.68188731 359.60494647 C42.99764808 359.6003956 37.3136059 359.60233398 31.62939358 359.62170792 C26.42429439 359.63929572 21.21953665 359.63837731 16.01443405 359.62281062 C14.13282277 359.62042791 12.25118812 359.62479239 10.36961262 359.63663927 C-0.58141006 359.70131107 -9.14346495 359.32010758 -18.6877718 353.38142776 C-23.93376694 347.98554704 -26.99697178 342.34009502 -27.00669956 334.7686615 C-27.01054071 333.64883527 -27.01438185 332.52900903 -27.0183394 331.37524867 C-27.01747291 330.13976763 -27.01660643 328.90428659 -27.01571369 327.63136673 C-27.01868481 326.32292211 -27.02165594 325.01447749 -27.02471709 323.66638303 C-27.03279614 320.02676626 -27.03457717 316.3871692 -27.03531456 312.74754453 C-27.03716355 308.82513095 -27.04471013 304.90272763 -27.05144978 300.98031998 C-27.06504022 292.39972417 -27.07105897 283.81913303 -27.07546043 275.23852825 C-27.07822175 269.88199832 -27.08245892 264.5254702 -27.08696461 259.1689415 C-27.09915839 244.34199893 -27.10945737 229.51505782 -27.1128397 214.68811035 C-27.11305926 213.73887344 -27.11327883 212.78963652 -27.11350505 211.81163485 C-27.11372333 210.86010906 -27.11394161 209.90858328 -27.1141665 208.92822337 C-27.11460997 207.00002718 -27.11505653 205.07183099 -27.11550617 203.1436348 C-27.1157276 202.18718013 -27.11594903 201.23072547 -27.11617717 200.24528733 C-27.12012532 184.74668811 -27.13757938 169.2481359 -27.16086569 153.74955484 C-27.18457344 137.84223963 -27.19704129 121.934948 -27.19820762 106.02761483 C-27.19912472 97.09429506 -27.20488594 88.16103653 -27.22302723 79.22773361 C-27.23842046 71.62076483 -27.2435533 64.01387622 -27.23528913 56.40689483 C-27.2313798 52.52553565 -27.23232588 48.64433794 -27.24634647 44.76299858 C-27.26140798 40.55502326 -27.25322724 36.34741253 -27.24276447 32.13942337 C-27.25082088 30.91286522 -27.25887728 29.68630706 -27.26717782 28.42258048 C-27.21037211 18.67954863 -25.28789987 13.09238295 -18.64480305 5.86189651 C-13.00179095 0.34345422 -7.55766245 -0.01787961 0 0 Z " fill="#F34234" transform="translate(26.875271797180176,76.86857223510742)"/>
<path d="M0 0 C0.80280733 -0.00205263 1.60561466 -0.00410527 2.43274948 -0.0062201 C5.13968671 -0.01190269 7.84657327 -0.0104313 10.55351543 -0.00901413 C12.50713478 -0.01159704 14.46075359 -0.01460999 16.41437167 -0.01801753 C21.7961686 -0.0260994 27.17795221 -0.02787776 32.55975449 -0.028615 C38.35878523 -0.03046347 44.15780902 -0.03800971 49.95683575 -0.04475021 C62.64261379 -0.05834203 75.32838868 -0.06435945 88.01417279 -0.06876087 C95.9314288 -0.0715216 103.84868358 -0.07575862 111.76593876 -0.08026505 C133.67607358 -0.09245833 155.58620738 -0.10279324 177.49634552 -0.10614014 C178.91326099 -0.10636177 180.33017646 -0.10658355 181.74709193 -0.10680549 C183.16744014 -0.10702613 184.58778836 -0.10724661 186.00813657 -0.10746694 C188.8576287 -0.10790949 191.70712084 -0.10835661 194.55661297 -0.10880661 C195.26312155 -0.108916 195.96963012 -0.10902539 196.69754805 -0.1091381 C219.61175965 -0.11276962 242.52593962 -0.12869348 265.44013911 -0.15199697 C289.66248426 -0.17658584 313.88481133 -0.19031252 338.10716933 -0.19150805 C351.31280096 -0.19242579 364.51839118 -0.19820282 377.72401142 -0.21632767 C388.96694031 -0.23170409 400.20981499 -0.23686363 411.45275239 -0.22858956 C417.19126832 -0.22467448 422.92967501 -0.22565453 428.6681776 -0.23964691 C433.9193318 -0.25233416 439.1702941 -0.25123398 444.42144784 -0.2390562 C446.32319172 -0.23709021 448.22494895 -0.24021898 450.12667403 -0.24890056 C452.70866119 -0.25994327 455.28996511 -0.25254013 457.87193298 -0.24050903 C458.61286024 -0.24810423 459.35378749 -0.25569942 460.11716709 -0.26352477 C468.2406852 -0.18162667 473.52957274 2.9736447 479.39425945 8.36189651 C484.20160205 13.277757 485.24664325 17.94553515 485.25894928 24.61444855 C485.26340712 25.73564913 485.26786497 26.85684971 485.2724579 28.01202607 C485.27218135 29.85985519 485.27218135 29.85985519 485.27189922 31.74501419 C485.27557591 33.05360767 485.2792526 34.36220115 485.2830407 35.71044898 C485.29305308 39.34587341 485.29677626 42.98128132 485.29943001 46.61671758 C485.30333525 50.53640776 485.31291334 54.4560849 485.32164288 58.37576675 C485.34139961 67.84251413 485.35147184 77.30926257 485.36037067 86.77602541 C485.36475429 91.23396857 485.37012085 95.69191054 485.37535954 100.14985275 C485.39236994 114.96825412 485.40686471 129.78665476 485.41410828 144.60506439 C485.41601817 148.44995245 485.4179385 152.29484051 485.41989422 156.13972855 C485.42037796 157.0953554 485.4208617 158.05098225 485.4213601 159.03556749 C485.4296627 174.52050976 485.45500433 190.00537484 485.4874749 205.4902834 C485.52053833 221.38746467 485.53855633 237.2846067 485.54175252 253.18182254 C485.54391812 262.10791611 485.55267432 271.03389706 485.57821369 279.95995712 C485.59991079 287.56066643 485.60797595 295.16123576 485.59824691 302.76197252 C485.5936995 306.63946106 485.59561382 310.51666073 485.61500835 314.39410973 C485.63586186 318.59957905 485.62566368 322.8044066 485.6124754 327.00990677 C485.62892926 328.84435156 485.62892926 328.84435156 485.64571553 330.71585584 C485.57737822 339.72804916 483.69957292 346.55658304 477.1247282 353.13142776 C470.06211342 357.73975127 464.72895113 359.28249193 456.32030582 359.26564884 C455.12757326 359.26917719 455.12757326 359.26917719 453.91074508 359.27277681 C451.22981106 359.2794665 448.5489255 359.2790086 445.86798382 359.27859879 C443.9330016 359.28189743 441.99802007 359.28562299 440.06303942 359.28974026 C434.73264223 359.29976831 429.4022563 359.30347835 424.07185102 359.30612957 C418.32797691 359.31003022 412.58411174 359.3196087 406.84024334 359.32834244 C392.96261812 359.34811322 379.08499217 359.35817366 365.20735639 359.36707023 C358.67459086 359.37145196 352.14182613 359.37681905 345.60906124 359.3820591 C323.89709341 359.39907169 302.18512653 359.41359134 280.47315311 359.42080784 C279.0689903 359.4212826 277.66482749 359.42175848 276.26066468 359.4222355 C275.21615904 359.42259006 275.21615904 359.42259006 274.15055228 359.42295179 C270.62257576 359.42415299 267.09459925 359.42536844 263.56662273 359.42659378 C262.51641734 359.42695401 262.51641734 359.42695401 261.44499567 359.42732151 C238.74575021 359.43521414 216.046557 359.45864526 193.34733435 359.49114972 C169.34769421 359.52545358 145.34808597 359.54515835 121.34842074 359.54845208 C108.26619777 359.55061859 95.1840516 359.55938799 82.10185146 359.58491325 C70.96183783 359.60659864 59.82191966 359.61468127 48.68188731 359.60494647 C42.99764808 359.6003956 37.3136059 359.60233398 31.62939358 359.62170792 C26.42429439 359.63929572 21.21953665 359.63837731 16.01443405 359.62281062 C14.13282277 359.62042791 12.25118812 359.62479239 10.36961262 359.63663927 C-0.58141006 359.70131107 -9.14346495 359.32010758 -18.6877718 353.38142776 C-23.93376694 347.98554704 -26.99697178 342.34009502 -27.00669956 334.7686615 C-27.01054071 333.64883527 -27.01438185 332.52900903 -27.0183394 331.37524867 C-27.01747291 330.13976763 -27.01660643 328.90428659 -27.01571369 327.63136673 C-27.01868481 326.32292211 -27.02165594 325.01447749 -27.02471709 323.66638303 C-27.03279614 320.02676626 -27.03457717 316.3871692 -27.03531456 312.74754453 C-27.03716355 308.82513095 -27.04471013 304.90272763 -27.05144978 300.98031998 C-27.06504022 292.39972417 -27.07105897 283.81913303 -27.07546043 275.23852825 C-27.07822175 269.88199832 -27.08245892 264.5254702 -27.08696461 259.1689415 C-27.09915839 244.34199893 -27.10945737 229.51505782 -27.1128397 214.68811035 C-27.11305926 213.73887344 -27.11327883 212.78963652 -27.11350505 211.81163485 C-27.11372333 210.86010906 -27.11394161 209.90858328 -27.1141665 208.92822337 C-27.11460997 207.00002718 -27.11505653 205.07183099 -27.11550617 203.1436348 C-27.1157276 202.18718013 -27.11594903 201.23072547 -27.11617717 200.24528733 C-27.12012532 184.74668811 -27.13757938 169.2481359 -27.16086569 153.74955484 C-27.18457344 137.84223963 -27.19704129 121.934948 -27.19820762 106.02761483 C-27.19912472 97.09429506 -27.20488594 88.16103653 -27.22302723 79.22773361 C-27.23842046 71.62076483 -27.2435533 64.01387622 -27.23528913 56.40689483 C-27.2313798 52.52553565 -27.23232588 48.64433794 -27.24634647 44.76299858 C-27.26140798 40.55502326 -27.25322724 36.34741253 -27.24276447 32.13942337 C-27.25082088 30.91286522 -27.25887728 29.68630706 -27.26717782 28.42258048 C-27.21037211 18.67954863 -25.28789987 13.09238295 -18.64480305 5.86189651 C-13.00179095 0.34345422 -7.55766245 -0.01787961 0 0 Z M-7.8752718 20.13142776 C-10.01678245 23.19286331 -10.12772585 25.80262663 -10.13533401 29.48227215 C-10.14239961 30.57397227 -10.1494652 31.66567239 -10.1567449 32.79045433 C-10.15432981 33.98936823 -10.15191473 35.18828214 -10.14942646 36.42352676 C-10.15466314 37.69748497 -10.15989982 38.97144318 -10.16529518 40.28400618 C-10.17948797 43.82262785 -10.18113824 47.36116175 -10.18069828 50.89980781 C-10.18234532 54.71515656 -10.19540957 58.53046902 -10.20689106 62.34579849 C-10.22974703 70.68860596 -10.237662 79.03138799 -10.2427175 87.37422252 C-10.24597319 92.58182896 -10.25249481 97.789428 -10.25971889 102.99703026 C-10.27928396 117.41139711 -10.29568926 131.82575707 -10.29859543 146.24013805 C-10.298783 147.16263447 -10.29897057 148.08513089 -10.29916382 149.03558174 C-10.29953008 150.90574586 -10.29989377 152.77590999 -10.30025493 154.64607411 C-10.30043774 155.5744415 -10.30062056 156.50280889 -10.30080891 157.45930862 C-10.30098946 158.38880687 -10.30117 159.31830513 -10.30135603 160.27596999 C-10.30489963 175.34587511 -10.33193407 190.41563751 -10.3693068 205.48549312 C-10.40735717 220.95213129 -10.42675266 236.41869858 -10.42705494 251.88538462 C-10.42764018 260.57163131 -10.43617482 269.25770766 -10.4650526 277.9439106 C-10.4895226 285.33832423 -10.49687905 292.73250539 -10.48180508 300.12694853 C-10.4746186 303.90083748 -10.47556756 307.67426695 -10.49821568 311.44810486 C-10.52251715 315.53652549 -10.50821932 319.62389328 -10.49000263 323.71234512 C-10.5032026 324.90902831 -10.51640257 326.10571149 -10.53000253 327.3386578 C-10.51881389 328.43296566 -10.50762525 329.52727353 -10.49609756 330.65474224 C-10.49691202 331.59845729 -10.49772648 332.54217234 -10.49856561 333.51448482 C-9.58471957 337.35133172 -8.01828748 338.79506956 -4.8752718 341.13142776 C-2.03619343 341.62350371 0.20187538 341.80567576 3.03493023 341.76063347 C3.82936035 341.76790067 4.62379048 341.77516788 5.44229424 341.7826553 C8.11515592 341.80096198 10.78659283 341.78352429 13.459445 341.76634598 C15.39061087 341.77210494 17.32177126 341.78004453 19.25292015 341.7899822 C24.5680553 341.81090966 29.88274323 341.80051348 35.19788027 341.78505111 C40.92667083 341.77376567 46.65538301 341.79118635 52.38415813 341.80495071 C63.61014344 341.82721765 74.83596186 341.82236651 86.06195378 341.80788751 C95.18318349 341.79660887 104.30436633 341.79505841 113.42560101 341.80050659 C114.722349 341.80127276 116.019097 341.80203892 117.35514039 341.8028283 C119.98922008 341.80442688 122.62329975 341.80604795 125.25737941 341.80769126 C149.26899805 341.82155193 173.28052641 341.80716268 197.29213051 341.78097828 C219.21847492 341.75724967 241.14467413 341.75937279 263.07101727 341.78328323 C287.6974411 341.81004823 312.32377716 341.8205855 336.95021439 341.80522192 C339.57476138 341.80362912 342.19930838 341.80205727 344.8238554 341.80050659 C346.76099306 341.79934953 346.76099306 341.79934953 348.73726481 341.79816908 C357.85060044 341.79384671 366.96388466 341.80115022 376.07721233 341.81290436 C387.17895714 341.82690795 398.28052512 341.82317443 409.38224959 341.79650064 C415.04969853 341.78333373 420.71685234 341.77825912 426.38429928 341.7947464 C431.56822004 341.80959929 436.75157095 341.80153476 441.93543971 341.77485864 C443.81490342 341.76925386 445.69441487 341.77215854 447.57384813 341.78423758 C450.12143317 341.79936016 452.66704557 341.78393704 455.21452618 341.76063347 C455.95079554 341.7723393 456.6870649 341.78404513 457.44564545 341.79610568 C461.22477488 341.72661982 463.01750957 341.21113969 466.08013964 338.93422067 C468.35705619 335.81294451 468.74944699 334.46543681 468.74834728 330.65753555 C468.76015262 329.56384439 468.77195796 328.47015322 468.78412104 327.34331989 C468.77160319 326.14731883 468.75908534 324.95131777 468.74618816 323.71907425 C468.75257699 322.44426162 468.75896581 321.16944899 468.76554823 319.85600567 C468.78255109 316.31941633 468.76835144 312.78353428 468.74903345 309.2469821 C468.7336167 305.43232319 468.74700564 301.61775153 468.75677776 297.80308914 C468.77131233 290.3309592 468.75906235 282.85910074 468.73766452 275.38699651 C468.71366597 266.68774366 468.71536819 257.98855317 468.71797043 249.28927457 C468.72166161 233.7688291 468.70082649 218.24851164 468.66672039 202.72810745 C468.6336284 187.66362142 468.61946198 172.59926973 468.62570477 157.53474808 C468.63246726 141.1354107 468.63001255 124.73612963 468.61034536 108.33680058 C468.60930588 107.4697775 468.60826639 106.60275443 468.60719541 105.70945793 C468.60510449 103.96802806 468.60299352 102.22659822 468.60086223 100.4851684 C468.59396368 94.41956741 468.59329782 88.35398376 468.59474468 82.28837967 C468.59618371 74.89766904 468.58650603 67.50706805 468.56279832 60.1163938 C468.55093005 56.34464831 468.54381863 52.57305571 468.54963589 48.80129242 C468.55575163 44.71529775 468.53866022 40.62973378 468.51913738 36.54378128 C468.52712927 34.74977969 468.52712927 34.74977969 468.53528261 32.91953564 C468.52169765 31.27899889 468.52169765 31.27899889 468.50783825 29.60531998 C468.50626705 28.662147 468.50469584 27.71897402 468.50307703 26.74722004 C468.04369699 23.57120186 467.0066779 21.71400963 465.1247282 19.13142776 C461.46098442 16.68893191 458.74251148 16.85167863 454.50747395 16.87695217 C453.72041663 16.87374569 452.93335932 16.87053922 452.12245178 16.86723557 C449.46303258 16.85887896 446.80383527 16.86487952 444.14441204 16.87073135 C442.22735265 16.86771324 440.31029446 16.86382549 438.39323843 16.85913879 C433.10791715 16.84880605 427.8226633 16.85105396 422.53733635 16.85531938 C416.84398118 16.85777709 411.15064266 16.84878436 405.45729351 16.84128189 C394.29658761 16.82850604 383.13590573 16.8267448 371.97519375 16.82908215 C362.90684507 16.83086231 353.83850371 16.8291222 344.77015591 16.82485771 C343.48146301 16.82426252 342.19277012 16.82366733 340.86502593 16.82305411 C338.24737419 16.82184241 335.62972244 16.82062827 333.0120707 16.81941173 C315.42537321 16.8116196 297.83867962 16.80770883 280.25198078 16.81172848 C279.5638749 16.81188485 278.87576902 16.81204123 278.16681145 16.81220234 C274.67902832 16.81300816 271.1912452 16.81385393 267.70346208 16.81471565 C266.66439117 16.81497228 266.66439117 16.81497228 265.60432893 16.81523409 C264.20349199 16.81558075 262.80265504 16.81592928 261.40181809 16.81627968 C239.60338411 16.82163724 217.80499058 16.81370687 196.00656414 16.79524612 C171.52886424 16.77454074 147.0511936 16.76383174 122.57348382 16.76782161 C109.60823701 16.76973729 96.64302704 16.76721057 83.67778683 16.75310707 C72.64008583 16.74122227 61.60244436 16.73975565 50.56474258 16.75189724 C44.92977213 16.75780645 39.29491073 16.75882921 33.6599474 16.74689484 C28.50569066 16.73610515 23.35163492 16.73905639 18.19738786 16.75315652 C16.32862582 16.75582264 14.45984837 16.75337747 12.59110136 16.74542066 C10.05837688 16.73538178 7.52636018 16.74367861 4.99366474 16.75669765 C4.26163672 16.74938831 3.5296087 16.74207896 2.77539802 16.73454812 C-1.60507875 16.78148624 -4.44295602 17.3533529 -7.8752718 20.13142776 Z " fill="#010000" transform="translate(26.875271797180176,76.86857223510742)"/>
<path d="M0 0 C3.87520092 2.6344866 5.9071261 5.07927488 7.9453125 9.26953125 C8.71693726 10.83405029 8.71693726 10.83405029 9.50415039 12.43017578 C10.30647095 14.10442627 10.30647095 14.10442627 11.125 15.8125 C11.96889282 17.53702393 11.96889282 17.53702393 12.82983398 19.29638672 C14.56743516 22.85757749 16.28628674 26.42726004 18 30 C18.53093262 31.1029541 19.06186523 32.2059082 19.60888672 33.34228516 C22.37369283 39.08968818 25.11860793 44.84612672 27.84814453 50.61035156 C28.96786376 52.9333299 30.13233987 55.22868531 31.30859375 57.5234375 C33 61 33 61 33 63 C33.59063232 62.97969727 34.18126465 62.95939453 34.78979492 62.93847656 C41.48188442 62.8105482 47.73311208 63.59109421 54.3125 64.75 C61.49554726 65.97033037 68.67532203 67.12165649 75.90234375 68.05078125 C77.86337036 68.30553223 77.86337036 68.30553223 79.86401367 68.56542969 C82.41381063 68.89158327 84.96475134 69.20894096 87.5168457 69.51660156 C89.26421021 69.74234863 89.26421021 69.74234863 91.046875 69.97265625 C92.07651367 70.09906494 93.10615234 70.22547363 94.16699219 70.35571289 C98.8215231 71.41425366 101.35533463 73.03300195 104 77 C104.5625 79.6875 104.5625 79.6875 104 83 C99.00371222 90.12892853 91.95867082 96.19428359 85.80297852 102.32739258 C84.066064 104.058947 82.33456111 105.79578359 80.60351562 107.53320312 C74.34827652 113.7922525 68.020503 119.85209692 61.19360352 125.49243164 C58.44465409 127.93942064 57.0597266 129.30962919 56.73657227 133.04492188 C57.05832891 137.87574452 57.83240999 142.52522445 58.71484375 147.28125 C58.89004044 148.25356567 59.06523712 149.22588135 59.2457428 150.22766113 C59.80394491 153.31950928 60.37040388 156.40977201 60.9375 159.5 C61.49934529 162.59051067 62.05947085 165.68132585 62.61854553 168.77233887 C62.96604286 170.69042321 63.31542269 172.60816777 63.66697693 174.5255127 C67.74325881 196.8766613 67.74325881 196.8766613 64.5 202.6875 C61.0277752 204.51041802 57.81244861 204.44115648 54 204 C51.39480809 203.00528392 49.19042521 202.02411219 46.7734375 200.703125 C46.11121689 200.35778717 45.44899628 200.01244934 44.76670837 199.65664673 C42.62777137 198.53622364 40.50181089 197.39324491 38.375 196.25 C36.89945997 195.47394152 35.42313481 194.69937405 33.94604492 193.92626953 C27.29561294 190.43140176 20.69628068 186.85440739 14.15234375 183.1640625 C13.15219238 182.60299805 12.15204102 182.04193359 11.12158203 181.46386719 C9.29665371 180.43165499 7.48055034 179.38362444 5.67529297 178.31738281 C4.8710791 177.85944336 4.06686523 177.40150391 3.23828125 176.9296875 C2.55805908 176.52991699 1.87783691 176.13014648 1.17700195 175.71826172 C-2.84720743 174.39054791 -6.1021606 175.59611432 -9.85473633 177.28417969 C-10.83724365 177.82461914 -11.81975098 178.36505859 -12.83203125 178.921875 C-13.94868164 179.5295874 -15.06533203 180.1372998 -16.21582031 180.76342773 C-16.8022229 181.08753632 -17.38862549 181.4116449 -17.99279785 181.74557495 C-19.83623433 182.76310069 -21.685977 183.7681314 -23.53808594 184.76977539 C-27.97461645 187.17026409 -32.40544191 189.58117806 -36.83123779 192.00140381 C-40.79314874 194.16770514 -44.76859096 196.30728883 -48.75 198.4375 C-50.27330933 199.27909668 -50.27330933 199.27909668 -51.82739258 200.13769531 C-57.47842486 203.1428466 -61.57148748 205.08321852 -68 204 C-70.70099734 201.92340814 -71.86607777 200.7775293 -72.45091248 197.38208008 C-72.2258604 190.35919499 -71.53117135 183.60142524 -70.28515625 176.6875 C-70.10995956 175.67075195 -69.93476288 174.65400391 -69.7542572 173.60644531 C-69.19971026 170.40258119 -68.63118855 167.20138061 -68.0625 164 C-67.68465862 161.82437283 -67.3076981 159.64859248 -66.93164062 157.47265625 C-66.24220992 153.50689526 -65.55136798 149.54142239 -64.84790039 145.578125 C-64.70800186 144.78825195 -64.56810333 143.99837891 -64.42396545 143.18457031 C-64.14677732 141.75630071 -63.83089405 140.33486394 -63.47239685 138.92480469 C-62.69400172 135.75319466 -62.63502779 133.25667515 -63 130 C-64.79472955 127.65488673 -66.34385833 125.93845429 -68.5 124 C-69.0053125 123.51789063 -69.510625 123.03578125 -70.03125 122.5390625 C-72.21153594 120.47869229 -74.43621836 118.48066769 -76.71899414 116.53442383 C-83.01089104 111.16215663 -88.82112873 105.33028413 -94.65698242 99.47338867 C-96.45442236 97.67052659 -98.25722661 95.87315015 -100.06054688 94.07617188 C-101.20605047 92.93000853 -102.35124439 91.78353558 -103.49609375 90.63671875 C-104.03455429 90.10028244 -104.57301483 89.56384613 -105.12779236 89.01115417 C-109.86140236 84.24737875 -109.86140236 84.24737875 -110.3125 80.1875 C-109.91621731 76.14541655 -108.86213322 74.84821685 -106 72 C-102.9453125 70.99609375 -102.9453125 70.99609375 -99.125 70.4375 C-98.414646 70.32801025 -97.70429199 70.21852051 -96.97241211 70.10571289 C-94.31831592 69.70815782 -91.66051336 69.35212036 -89 69 C-87.82163574 68.84144531 -86.64327148 68.68289062 -85.42919922 68.51953125 C-80.18299529 67.81536057 -74.93710656 67.1121178 -69.68603516 66.44506836 C-60.4596511 65.26365733 -60.4596511 65.26365733 -51.34350586 63.44433594 C-49 63 -49 63 -46.48266602 63.02050781 C-43.38903588 62.90536839 -41.69581395 62.56661784 -39 61 C-35.21313782 55.76987637 -32.66238145 50.04785054 -30 44.1875 C-29.21743739 42.53870417 -28.43137129 40.89156672 -27.6418457 39.24609375 C-25.38425091 34.51714037 -23.18695098 29.76193319 -21 25 C-19.4818637 21.71575577 -17.95789003 18.43431228 -16.42382812 15.1574707 C-15.62639161 13.44339162 -14.84394151 11.72222175 -14.08007812 9.99291992 C-11.15340706 3.57532554 -7.7869816 -1.29783027 0 0 Z " fill="#030100" transform="translate(259,154)"/>
<path d="M0 0 C0.66 0 1.32 0 2 0 C2.41889496 0.8544445 2.41889496 0.8544445 2.84625244 1.72615051 C5.7543604 7.65296967 8.67651591 13.5727062 11.60693359 19.48852539 C12.69877279 21.69735016 13.78701544 23.90795652 14.87158203 26.12036133 C16.43100315 29.29983979 18.00323934 32.47269017 19.578125 35.64453125 C20.06057678 36.63524124 20.54302856 37.62595123 21.0401001 38.64668274 C21.50027527 39.56741074 21.96045044 40.48813873 22.43457031 41.43676758 C22.8342804 42.2472908 23.23399048 43.05781403 23.64581299 43.89289856 C25.60072662 46.93472461 27.58979981 48.61337158 31.09759521 49.5750885 C31.8462384 49.66898361 32.59488159 49.76287872 33.36621094 49.85961914 C34.22100037 49.97306168 35.07578979 50.08650421 35.95648193 50.2033844 C36.87318665 50.31286911 37.78989136 50.42235382 38.734375 50.53515625 C39.6863678 50.65934433 40.6383606 50.78353241 41.61920166 50.91148376 C44.6614598 51.30660749 47.70545706 51.68542137 50.75 52.0625 C53.77985838 52.44569365 56.80919637 52.83240989 59.83795166 53.22422791 C61.72049817 53.46693974 63.60373861 53.70434895 65.48773193 53.93556213 C70.79094479 54.60986999 75.83972084 55.59814167 81 57 C75.82003968 63.19068428 70.44003175 68.94730346 64.30078125 74.19921875 C59.86993432 78.05857435 55.70452205 82.1473166 51.5625 86.3125 C50.84384766 87.02728516 50.12519531 87.74207031 49.38476562 88.47851562 C48.70220703 89.16236328 48.01964844 89.84621094 47.31640625 90.55078125 C46.39516968 91.47370972 46.39516968 91.47370972 45.45532227 92.4152832 C42.7399025 95.37213435 42.81817714 97.79660905 42.87084961 101.73022461 C43.08884341 105.56139353 43.79912619 109.26970151 44.53125 113.03125 C44.68662231 113.86660278 44.84199463 114.70195557 45.0020752 115.56262207 C45.49460001 118.20974199 45.99612502 120.85501869 46.5 123.5 C47.16449086 126.98809922 47.81944627 130.4777955 48.46875 133.96875 C48.62186646 134.75544067 48.77498291 135.54213135 48.93273926 136.35266113 C49.8554291 141.31937934 50.14074569 145.94751689 50 151 C47.93579478 149.98252562 45.87373549 148.96096777 43.8125 147.9375 C43.12994141 147.60041016 42.44738281 147.26332031 41.74414062 146.91601562 C37.34855053 144.72760484 32.99405364 142.47481059 28.66789246 140.15174866 C26.09686269 138.77214812 23.51942303 137.40472412 20.94198608 136.03713989 C19.65399608 135.34927409 18.36912504 134.65553403 17.08755493 133.95578003 C15.25360718 132.95525287 13.40955532 131.97606666 11.5625 131 C10.49128906 130.4225 9.42007813 129.845 8.31640625 129.25 C2.822548 127.17928782 -1.17517154 127.29850193 -6.53173828 129.35766602 C-7.72002063 129.97312429 -8.89937235 130.60606135 -10.0703125 131.25390625 C-11.03564407 131.76170876 -11.03564407 131.76170876 -12.02047729 132.2797699 C-14.06385134 133.35879311 -16.09437253 134.45970935 -18.125 135.5625 C-19.46271788 136.27563597 -20.80125551 136.98723646 -22.140625 137.69726562 C-24.13004606 138.75241058 -26.11866427 139.80882917 -28.1038208 140.87197876 C-34.6690078 144.38394872 -41.32213566 147.70793917 -48 151 C-48.17015756 144.9481205 -47.55680362 139.40665959 -46.46875 133.4609375 C-46.31337769 132.57644928 -46.15800537 131.69196106 -45.9979248 130.78067017 C-45.50503218 127.97759859 -45.00338669 125.17620457 -44.5 122.375 C-43.99721909 119.56656127 -43.49653169 116.7578234 -43.0020752 113.94790649 C-42.69547092 112.20627577 -42.38410651 110.46547418 -42.06726074 108.72567749 C-40.43159155 101.29146826 -40.43159155 101.29146826 -42.00390625 94.19140625 C-42.77541016 93.38509766 -42.77541016 93.38509766 -43.5625 92.5625 C-44.19414062 91.89476562 -44.82578125 91.22703125 -45.4765625 90.5390625 C-46.30929688 89.70117188 -47.14203125 88.86328125 -48 88 C-49.17448828 86.79948808 -50.34896659 85.59896641 -51.5234375 84.3984375 C-57.24866014 78.58482241 -62.98216784 72.83239645 -69.21484375 67.55859375 C-72.64676133 64.56223682 -75.92059629 61.35786043 -79 58 C-79 57.67 -79 57.34 -79 57 C-70.67983356 55.34690215 -62.36622456 53.8452819 -53.95703125 52.71875 C-53.20582001 52.61739746 -52.45460876 52.51604492 -51.68063354 52.41162109 C-48.60533625 51.99942845 -45.52958198 51.59181379 -42.4519043 51.19775391 C-40.16047322 50.90237691 -37.87130157 50.59287265 -35.58203125 50.28125 C-34.89244827 50.19677612 -34.2028653 50.11230225 -33.49238586 50.02526855 C-29.29578844 49.44178616 -26.44510929 48.44718164 -23 46 C-21.45289062 43.90417851 -21.45289062 43.90417851 -20.32104492 41.43676758 C-19.86094528 40.51603958 -19.40084564 39.59531158 -18.92680359 38.64668274 C-18.44951309 37.65597275 -17.9722226 36.66526276 -17.48046875 35.64453125 C-16.97703445 34.62775803 -16.47360016 33.6109848 -15.95491028 32.56340027 C-14.35249791 29.31944216 -12.76984533 26.06628614 -11.1875 22.8125 C-10.10350257 20.60939133 -9.01823089 18.40690914 -7.93164062 16.20507812 C-5.27294017 10.81056347 -2.63039191 5.40836956 0 0 Z " fill="#FDE939" transform="translate(255,183)"/>
<path d="M0 0 C2.06132142 -0.10864945 4.12431321 -0.18588321 6.1875 -0.25 C7.33605469 -0.29640625 8.48460937 -0.3428125 9.66796875 -0.390625 C13.65710294 0.07703434 15.21091307 1.16502316 18 4 C19.0098018 7.02940539 19.12919108 9.05928114 19.13701439 12.22779655 C19.1446262 13.86236016 19.1446262 13.86236016 19.15239179 15.52994525 C19.15288955 16.731772 19.15338731 17.93359874 19.15390015 19.17184448 C19.1582824 20.44494826 19.16266465 21.71805205 19.1671797 23.02973473 C19.17914874 26.57059375 19.18479438 30.11143914 19.18936086 33.65231442 C19.19531549 37.46835299 19.20692548 41.28437526 19.21765137 45.10040283 C19.24217537 54.31838015 19.25680088 63.53636286 19.26971143 72.75436276 C19.27342284 75.35690848 19.2773961 77.95945366 19.2814641 80.56199884 C19.30669595 96.71685347 19.32875313 112.87170892 19.34119225 129.0265789 C19.34412202 132.7685331 19.34708368 136.51048727 19.35009766 140.25244141 C19.35084371 141.18250516 19.35158976 142.11256891 19.35235842 143.07081641 C19.3650201 158.14724515 19.39825445 173.22355617 19.43989949 188.29992984 C19.4822855 203.77104954 19.50588326 219.2421089 19.51111281 234.71328652 C19.51453031 243.40291059 19.52632558 252.09235056 19.55921555 260.78191757 C19.58717124 268.18000527 19.59823511 275.57787114 19.58702008 282.97600757 C19.5818222 286.75192199 19.5847926 290.52737151 19.60948563 294.30321884 C19.63601469 298.39386708 19.62395679 302.48348552 19.60800171 306.57418823 C19.6218838 307.77155353 19.63576588 308.96891884 19.65006864 310.20256793 C19.57287836 318.1970826 19.57287836 318.1970826 16.68392372 322.24609566 C13.15576592 324.55169445 10.86532238 324.50772535 6.6875 324.3125 C4.80611328 324.24482422 4.80611328 324.24482422 2.88671875 324.17578125 C1.93410156 324.11777344 0.98148437 324.05976563 0 324 C0.16240453 323.45170721 0.32480905 322.90341442 0.49213493 322.3385067 C1.06776791 319.68795705 1.12538049 317.29711619 1.12584114 314.58389282 C1.12844889 313.47764242 1.13105664 312.37139202 1.13374341 311.23161888 C1.13151268 310.01645906 1.12928196 308.80129925 1.12698364 307.54931641 C1.12932363 305.61281943 1.12932363 305.61281943 1.13171089 303.63720131 C1.13589301 300.05105504 1.13381853 296.46493532 1.13072467 292.87878895 C1.12846627 289.01235078 1.13195239 285.14591724 1.13470459 281.27947998 C1.13915653 273.70403784 1.13818837 266.12860559 1.13529195 258.55316305 C1.13303567 252.39768486 1.13272637 246.24220944 1.13381577 240.08673096 C1.133969 239.21141366 1.13412223 238.33609636 1.13428011 237.43425429 C1.13459983 235.65619135 1.13492404 233.87812841 1.1352527 232.10006547 C1.1381058 215.41820718 1.13482312 198.73635439 1.12945233 182.054497 C1.12498445 167.73359421 1.12576043 153.41269952 1.13037109 139.09179688 C1.13571984 122.47055872 1.13783113 105.84932537 1.13475883 89.22808647 C1.13444027 87.45648066 1.1341259 85.68487485 1.13381577 83.91326904 C1.13358435 82.60569498 1.13358435 82.60569498 1.13334826 81.27170527 C1.13248401 75.12199261 1.13394402 68.97228299 1.13629532 62.8225708 C1.13909684 55.3304762 1.13834759 47.83839209 1.13301457 40.34629869 C1.13038234 36.52206629 1.12936446 32.69785137 1.13266373 28.87361908 C1.1361823 24.73262529 1.13198745 20.59167584 1.12698364 16.45068359 C1.12921436 15.23552378 1.13144509 14.02036396 1.13374341 12.76838112 C1.13113566 11.66213072 1.12852791 10.55588032 1.12584114 9.41610718 C1.12567879 8.45986135 1.12551644 7.50361553 1.12534916 6.51839256 C1.00982052 4.19730426 0.65796763 2.22135993 0 0 Z " fill="#C42727" transform="translate(476,94)"/>
</svg>
